<svg width="610" height="444" viewBox="0 0 610 444" fill="none" xmlns="http://www.w3.org/2000/svg">
<path d="M329.433 277.078L321.301 290.817C314.053 303.061 295.948 303.061 288.7 290.817L280.568 277.078C274.261 266.422 271.108 261.096 266.042 258.148C260.977 255.202 254.599 255.092 241.844 254.873C223.014 254.548 211.204 253.394 201.299 249.292C182.922 241.679 168.321 227.08 160.709 208.702C155 194.92 155 177.446 155 142.501V127.5C155 78.3988 155 53.848 166.052 35.8128C172.236 25.721 180.721 17.2363 190.813 11.052C208.848 -8.94073e-07 233.399 0 282.5 0H327.501C376.602 0 401.152 -8.94073e-07 419.188 11.052C429.281 17.2363 437.765 25.721 443.949 35.8128C455.001 53.848 455.001 78.3988 455.001 127.5V142.501C455.001 177.446 455.001 194.92 449.292 208.702C441.68 227.08 427.08 241.679 408.702 249.292C398.797 253.394 386.988 254.548 368.157 254.873C355.401 255.092 349.024 255.202 343.959 258.148C338.893 261.094 335.739 266.422 329.433 277.078Z" fill="#936EFF"/>
<path d="M380.004 135.002C380.004 143.287 373.288 150.002 365.004 150.002C356.719 150.002 350.004 143.287 350.004 135.002C350.004 126.717 356.719 120.002 365.004 120.002C373.288 120.002 380.004 126.717 380.004 135.002Z" fill="white"/>
<path d="M319.996 135.002C319.996 143.287 313.281 150.002 304.996 150.002C296.712 150.002 289.996 143.287 289.996 135.002C289.996 126.717 296.712 120.002 304.996 120.002C313.281 120.002 319.996 126.717 319.996 135.002Z" fill="white"/>
<path d="M260 135.002C260 143.287 253.284 150.002 245 150.002C236.716 150.002 230 143.287 230 135.002C230 126.717 236.716 120.002 245 120.002C253.284 120.002 260 126.717 260 135.002Z" fill="white"/>

</svg>
